<?xml version="1.0" encoding="UTF-8" standalone="no"?>
<!DOCTYPE svg PUBLIC "-//W3C//DTD SVG 1.1//EN"
 "http://www.w3.org/Graphics/SVG/1.1/DTD/svg11.dtd">
<!-- Generated by graphviz version 10.0.1 (20240210.2158)
 -->
<!-- Title: ansiseq Pages: 1 -->
<svg width="952pt" height="479pt"
 viewBox="0.00 0.00 952.00 479.00" xmlns="http://www.w3.org/2000/svg" xmlns:xlink="http://www.w3.org/1999/xlink">
<g id="graph0" class="graph" transform="scale(1 1) rotate(0) translate(4 475)">
<title>ansiseq</title>
<polygon fill="white" stroke="none" points="-4,4 -4,-475 948,-475 948,4 -4,4"/>
<!-- L0 -->
<g id="node1" class="node">
<title>L0</title>
<polygon fill="none" stroke="black" points="415,-423 415,-470.5 469,-470.5 469,-423 415,-423"/>
<text text-anchor="middle" x="441.62" y="-453.2" font-family="Times New Roman,serif" font-size="14.00">ESC</text>
<polyline fill="none" stroke="black" points="415,-446.75 468.25,-446.75"/>
<text text-anchor="middle" x="441.62" y="-429.45" font-family="Times New Roman,serif" font-size="14.00">0</text>
</g>
<!-- L1 -->
<g id="node2" class="node">
<title>L1</title>
<polygon fill="none" stroke="black" points="420.62,-338.5 420.62,-386 489.38,-386 489.38,-338.5 420.62,-338.5"/>
<text text-anchor="middle" x="441.75" y="-368.7" font-family="Times New Roman,serif" font-size="14.00">ESC</text>
<polyline fill="none" stroke="black" points="420.62,-362.25 462.88,-362.25"/>
<text text-anchor="middle" x="441.75" y="-344.95" font-family="Times New Roman,serif" font-size="14.00">1</text>
<polyline fill="none" stroke="black" points="462.88,-338.5 462.88,-386"/>
<text text-anchor="middle" x="476.12" y="-368.7" font-family="Times New Roman,serif" font-size="14.00">&#39;[&#39;</text>
<polyline fill="none" stroke="black" points="462.88,-362.25 489.38,-362.25"/>
<text text-anchor="middle" x="476.12" y="-344.95" font-family="Times New Roman,serif" font-size="14.00">2</text>
</g>
<!-- L0&#45;&gt;L1 -->
<g id="edge1" class="edge">
<title>L0:O0&#45;&gt;L1:I1</title>
<path fill="none" stroke="black" d="M442,-422.5C442,-411.12 442,-405.82 442,-397.95"/>
<polygon fill="black" stroke="black" points="445.5,-398.01 442,-388.01 438.5,-398.01 445.5,-398.01"/>
</g>
<!-- L2 -->
<g id="node3" class="node">
<title>L2</title>
<polygon fill="none" stroke="black" points="431.62,-254 431.62,-301.5 544.38,-301.5 544.38,-254 431.62,-254"/>
<text text-anchor="middle" x="444.88" y="-284.2" font-family="Times New Roman,serif" font-size="14.00">&#39;[&#39;</text>
<polyline fill="none" stroke="black" points="431.62,-277.75 458.12,-277.75"/>
<text text-anchor="middle" x="444.88" y="-260.45" font-family="Times New Roman,serif" font-size="14.00">3</text>
<polyline fill="none" stroke="black" points="458.12,-254 458.12,-301.5"/>
<text text-anchor="middle" x="472.5" y="-284.2" font-family="Times New Roman,serif" font-size="14.00">&#39;1&#39;</text>
<polyline fill="none" stroke="black" points="458.12,-277.75 486.88,-277.75"/>
<text text-anchor="middle" x="472.5" y="-260.45" font-family="Times New Roman,serif" font-size="14.00">4</text>
<polyline fill="none" stroke="black" points="486.88,-254 486.88,-301.5"/>
<text text-anchor="middle" x="501.25" y="-284.2" font-family="Times New Roman,serif" font-size="14.00">&#39;2&#39;</text>
<polyline fill="none" stroke="black" points="486.88,-277.75 515.62,-277.75"/>
<text text-anchor="middle" x="501.25" y="-260.45" font-family="Times New Roman,serif" font-size="14.00">5</text>
<polyline fill="none" stroke="black" points="515.62,-254 515.62,-301.5"/>
<text text-anchor="middle" x="530" y="-284.2" font-family="Times New Roman,serif" font-size="14.00">&#39;3&#39;</text>
<polyline fill="none" stroke="black" points="515.62,-277.75 544.38,-277.75"/>
<text text-anchor="middle" x="530" y="-260.45" font-family="Times New Roman,serif" font-size="14.00">6</text>
</g>
<!-- L1&#45;&gt;L2 -->
<g id="edge2" class="edge">
<title>L1:O1&#45;&gt;L2:I3</title>
<path fill="none" stroke="black" d="M442,-338C442,-326.59 443.52,-321.32 444.39,-313.46"/>
<polygon fill="black" stroke="black" points="447.89,-313.68 444.92,-303.51 440.9,-313.31 447.89,-313.68"/>
</g>
<!-- L1&#45;&gt;L2 -->
<g id="edge3" class="edge">
<title>L1:O2&#45;&gt;L2:I4</title>
<path fill="none" stroke="black" d="M476,-338C476,-326.55 473.98,-321.32 472.81,-313.47"/>
<polygon fill="black" stroke="black" points="476.3,-313.24 472.11,-303.51 469.32,-313.73 476.3,-313.24"/>
</g>
<!-- L3 -->
<g id="node4" class="node">
<title>L3</title>
<polygon fill="none" stroke="black" points="296.62,-169.5 296.62,-217 943.38,-217 943.38,-169.5 296.62,-169.5"/>
<text text-anchor="middle" x="311" y="-199.7" font-family="Times New Roman,serif" font-size="14.00">&#39;1&#39;</text>
<polyline fill="none" stroke="black" points="296.62,-193.25 325.38,-193.25"/>
<text text-anchor="middle" x="311" y="-175.95" font-family="Times New Roman,serif" font-size="14.00">7</text>
<polyline fill="none" stroke="black" points="325.38,-169.5 325.38,-217"/>
<text text-anchor="middle" x="339.75" y="-199.7" font-family="Times New Roman,serif" font-size="14.00">&#39;2&#39;</text>
<polyline fill="none" stroke="black" points="325.38,-193.25 354.12,-193.25"/>
<text text-anchor="middle" x="339.75" y="-175.95" font-family="Times New Roman,serif" font-size="14.00">8</text>
<polyline fill="none" stroke="black" points="354.12,-169.5 354.12,-217"/>
<text text-anchor="middle" x="368.5" y="-199.7" font-family="Times New Roman,serif" font-size="14.00">&#39;1&#39;</text>
<polyline fill="none" stroke="black" points="354.12,-193.25 382.88,-193.25"/>
<text text-anchor="middle" x="368.5" y="-175.95" font-family="Times New Roman,serif" font-size="14.00">9</text>
<polyline fill="none" stroke="black" points="382.88,-169.5 382.88,-217"/>
<text text-anchor="middle" x="397.62" y="-199.7" font-family="Times New Roman,serif" font-size="14.00">&#39;2&#39;</text>
<polyline fill="none" stroke="black" points="382.88,-193.25 412.38,-193.25"/>
<text text-anchor="middle" x="397.62" y="-175.95" font-family="Times New Roman,serif" font-size="14.00">10</text>
<polyline fill="none" stroke="black" points="412.38,-169.5 412.38,-217"/>
<text text-anchor="middle" x="427.12" y="-199.7" font-family="Times New Roman,serif" font-size="14.00">&#39;3&#39;</text>
<polyline fill="none" stroke="black" points="412.38,-193.25 441.88,-193.25"/>
<text text-anchor="middle" x="427.12" y="-175.95" font-family="Times New Roman,serif" font-size="14.00">11</text>
<polyline fill="none" stroke="black" points="441.88,-169.5 441.88,-217"/>
<text text-anchor="middle" x="456.62" y="-199.7" font-family="Times New Roman,serif" font-size="14.00">&#39;4&#39;</text>
<polyline fill="none" stroke="black" points="441.88,-193.25 471.38,-193.25"/>
<text text-anchor="middle" x="456.62" y="-175.95" font-family="Times New Roman,serif" font-size="14.00">12</text>
<polyline fill="none" stroke="black" points="471.38,-169.5 471.38,-217"/>
<text text-anchor="middle" x="486.12" y="-199.7" font-family="Times New Roman,serif" font-size="14.00">&#39;5&#39;</text>
<polyline fill="none" stroke="black" points="471.38,-193.25 500.88,-193.25"/>
<text text-anchor="middle" x="486.12" y="-175.95" font-family="Times New Roman,serif" font-size="14.00">13</text>
<polyline fill="none" stroke="black" points="500.88,-169.5 500.88,-217"/>
<text text-anchor="middle" x="515.62" y="-199.7" font-family="Times New Roman,serif" font-size="14.00">&#39;7&#39;</text>
<polyline fill="none" stroke="black" points="500.88,-193.25 530.38,-193.25"/>
<text text-anchor="middle" x="515.62" y="-175.95" font-family="Times New Roman,serif" font-size="14.00">14</text>
<polyline fill="none" stroke="black" points="530.38,-169.5 530.38,-217"/>
<text text-anchor="middle" x="545.12" y="-199.7" font-family="Times New Roman,serif" font-size="14.00">&#39;8&#39;</text>
<polyline fill="none" stroke="black" points="530.38,-193.25 559.88,-193.25"/>
<text text-anchor="middle" x="545.12" y="-175.95" font-family="Times New Roman,serif" font-size="14.00">15</text>
<polyline fill="none" stroke="black" points="559.88,-169.5 559.88,-217"/>
<text text-anchor="middle" x="574.62" y="-199.7" font-family="Times New Roman,serif" font-size="14.00">&#39;9&#39;</text>
<polyline fill="none" stroke="black" points="559.88,-193.25 589.38,-193.25"/>
<text text-anchor="middle" x="574.62" y="-175.95" font-family="Times New Roman,serif" font-size="14.00">16</text>
<polyline fill="none" stroke="black" points="589.38,-169.5 589.38,-217"/>
<text text-anchor="middle" x="604.12" y="-199.7" font-family="Times New Roman,serif" font-size="14.00">&#39;0&#39;</text>
<polyline fill="none" stroke="black" points="589.38,-193.25 618.88,-193.25"/>
<text text-anchor="middle" x="604.12" y="-175.95" font-family="Times New Roman,serif" font-size="14.00">17</text>
<polyline fill="none" stroke="black" points="618.88,-169.5 618.88,-217"/>
<text text-anchor="middle" x="633.62" y="-199.7" font-family="Times New Roman,serif" font-size="14.00">&#39;1&#39;</text>
<polyline fill="none" stroke="black" points="618.88,-193.25 648.38,-193.25"/>
<text text-anchor="middle" x="633.62" y="-175.95" font-family="Times New Roman,serif" font-size="14.00">18</text>
<polyline fill="none" stroke="black" points="648.38,-169.5 648.38,-217"/>
<text text-anchor="middle" x="663.12" y="-199.7" font-family="Times New Roman,serif" font-size="14.00">&#39;3&#39;</text>
<polyline fill="none" stroke="black" points="648.38,-193.25 677.88,-193.25"/>
<text text-anchor="middle" x="663.12" y="-175.95" font-family="Times New Roman,serif" font-size="14.00">19</text>
<polyline fill="none" stroke="black" points="677.88,-169.5 677.88,-217"/>
<text text-anchor="middle" x="692.62" y="-199.7" font-family="Times New Roman,serif" font-size="14.00">&#39;4&#39;</text>
<polyline fill="none" stroke="black" points="677.88,-193.25 707.38,-193.25"/>
<text text-anchor="middle" x="692.62" y="-175.95" font-family="Times New Roman,serif" font-size="14.00">20</text>
<polyline fill="none" stroke="black" points="707.38,-169.5 707.38,-217"/>
<text text-anchor="middle" x="722.12" y="-199.7" font-family="Times New Roman,serif" font-size="14.00">&#39;5&#39;</text>
<polyline fill="none" stroke="black" points="707.38,-193.25 736.88,-193.25"/>
<text text-anchor="middle" x="722.12" y="-175.95" font-family="Times New Roman,serif" font-size="14.00">21</text>
<polyline fill="none" stroke="black" points="736.88,-169.5 736.88,-217"/>
<text text-anchor="middle" x="751.62" y="-199.7" font-family="Times New Roman,serif" font-size="14.00">&#39;6&#39;</text>
<polyline fill="none" stroke="black" points="736.88,-193.25 766.38,-193.25"/>
<text text-anchor="middle" x="751.62" y="-175.95" font-family="Times New Roman,serif" font-size="14.00">22</text>
<polyline fill="none" stroke="black" points="766.38,-169.5 766.38,-217"/>
<text text-anchor="middle" x="781.12" y="-199.7" font-family="Times New Roman,serif" font-size="14.00">&#39;8&#39;</text>
<polyline fill="none" stroke="black" points="766.38,-193.25 795.88,-193.25"/>
<text text-anchor="middle" x="781.12" y="-175.95" font-family="Times New Roman,serif" font-size="14.00">23</text>
<polyline fill="none" stroke="black" points="795.88,-169.5 795.88,-217"/>
<text text-anchor="middle" x="810.62" y="-199.7" font-family="Times New Roman,serif" font-size="14.00">&#39;9&#39;</text>
<polyline fill="none" stroke="black" points="795.88,-193.25 825.38,-193.25"/>
<text text-anchor="middle" x="810.62" y="-175.95" font-family="Times New Roman,serif" font-size="14.00">24</text>
<polyline fill="none" stroke="black" points="825.38,-169.5 825.38,-217"/>
<text text-anchor="middle" x="840.12" y="-199.7" font-family="Times New Roman,serif" font-size="14.00">&#39;1&#39;</text>
<polyline fill="none" stroke="black" points="825.38,-193.25 854.88,-193.25"/>
<text text-anchor="middle" x="840.12" y="-175.95" font-family="Times New Roman,serif" font-size="14.00">25</text>
<polyline fill="none" stroke="black" points="854.88,-169.5 854.88,-217"/>
<text text-anchor="middle" x="869.62" y="-199.7" font-family="Times New Roman,serif" font-size="14.00">&#39;2&#39;</text>
<polyline fill="none" stroke="black" points="854.88,-193.25 884.38,-193.25"/>
<text text-anchor="middle" x="869.62" y="-175.95" font-family="Times New Roman,serif" font-size="14.00">26</text>
<polyline fill="none" stroke="black" points="884.38,-169.5 884.38,-217"/>
<text text-anchor="middle" x="899.12" y="-199.7" font-family="Times New Roman,serif" font-size="14.00">&#39;3&#39;</text>
<polyline fill="none" stroke="black" points="884.38,-193.25 913.88,-193.25"/>
<text text-anchor="middle" x="899.12" y="-175.95" font-family="Times New Roman,serif" font-size="14.00">27</text>
<polyline fill="none" stroke="black" points="913.88,-169.5 913.88,-217"/>
<text text-anchor="middle" x="928.62" y="-199.7" font-family="Times New Roman,serif" font-size="14.00">&#39;4&#39;</text>
<polyline fill="none" stroke="black" points="913.88,-193.25 943.38,-193.25"/>
<text text-anchor="middle" x="928.62" y="-175.95" font-family="Times New Roman,serif" font-size="14.00">28</text>
</g>
<!-- L2&#45;&gt;L3 -->
<g id="edge4" class="edge">
<title>L2:O3&#45;&gt;L3:I7</title>
<path fill="none" stroke="black" d="M445,-253.5C445,-196.17 329.18,-267.62 312.89,-228.4"/>
<polygon fill="black" stroke="black" points="316.42,-228.24 311.26,-218.99 309.52,-229.44 316.42,-228.24"/>
</g>
<!-- L2&#45;&gt;L3 -->
<g id="edge5" class="edge">
<title>L2:O4&#45;&gt;L3:I9</title>
<path fill="none" stroke="black" d="M472,-253.5C472,-209.17 386.59,-255.79 370.57,-228.52"/>
<polygon fill="black" stroke="black" points="374.02,-227.92 368.34,-218.97 367.21,-229.51 374.02,-227.92"/>
</g>
<!-- L2&#45;&gt;L3 -->
<g id="edge6" class="edge">
<title>L2:O5&#45;&gt;L3:I17</title>
<path fill="none" stroke="black" d="M501,-253.5C501,-209.55 585.59,-255.52 601.45,-228.43"/>
<polygon fill="black" stroke="black" points="604.8,-229.51 603.66,-218.97 597.98,-227.92 604.8,-229.51"/>
</g>
<!-- L2&#45;&gt;L3 -->
<g id="edge7" class="edge">
<title>L2:O6&#45;&gt;L3:I25</title>
<path fill="none" stroke="black" d="M545,-265.75C575.03,-265.75 791.99,-253.45 833.24,-226.54"/>
<polygon fill="black" stroke="black" points="835.9,-228.82 839.09,-218.71 830.3,-224.62 835.9,-228.82"/>
</g>
<!-- L4 -->
<g id="node5" class="node">
<title>L4</title>
<polygon fill="none" stroke="black" points="0,-85 0,-132.5 944,-132.5 944,-85 0,-85"/>
<text text-anchor="middle" x="14.75" y="-115.2" font-family="Times New Roman,serif" font-size="14.00">&#39;1&#39;</text>
<polyline fill="none" stroke="black" points="0,-108.75 29.5,-108.75"/>
<text text-anchor="middle" x="14.75" y="-91.45" font-family="Times New Roman,serif" font-size="14.00">29</text>
<polyline fill="none" stroke="black" points="29.5,-85 29.5,-132.5"/>
<text text-anchor="middle" x="44.25" y="-115.2" font-family="Times New Roman,serif" font-size="14.00">&#39;2&#39;</text>
<polyline fill="none" stroke="black" points="29.5,-108.75 59,-108.75"/>
<text text-anchor="middle" x="44.25" y="-91.45" font-family="Times New Roman,serif" font-size="14.00">30</text>
<polyline fill="none" stroke="black" points="59,-85 59,-132.5"/>
<text text-anchor="middle" x="73.75" y="-115.2" font-family="Times New Roman,serif" font-size="14.00">&#39;3&#39;</text>
<polyline fill="none" stroke="black" points="59,-108.75 88.5,-108.75"/>
<text text-anchor="middle" x="73.75" y="-91.45" font-family="Times New Roman,serif" font-size="14.00">31</text>
<polyline fill="none" stroke="black" points="88.5,-85 88.5,-132.5"/>
<text text-anchor="middle" x="103.25" y="-115.2" font-family="Times New Roman,serif" font-size="14.00">&#39;4&#39;</text>
<polyline fill="none" stroke="black" points="88.5,-108.75 118,-108.75"/>
<text text-anchor="middle" x="103.25" y="-91.45" font-family="Times New Roman,serif" font-size="14.00">32</text>
<polyline fill="none" stroke="black" points="118,-85 118,-132.5"/>
<text text-anchor="middle" x="132.75" y="-115.2" font-family="Times New Roman,serif" font-size="14.00">&#39;5&#39;</text>
<polyline fill="none" stroke="black" points="118,-108.75 147.5,-108.75"/>
<text text-anchor="middle" x="132.75" y="-91.45" font-family="Times New Roman,serif" font-size="14.00">33</text>
<polyline fill="none" stroke="black" points="147.5,-85 147.5,-132.5"/>
<text text-anchor="middle" x="162.25" y="-115.2" font-family="Times New Roman,serif" font-size="14.00">&#39;7&#39;</text>
<polyline fill="none" stroke="black" points="147.5,-108.75 177,-108.75"/>
<text text-anchor="middle" x="162.25" y="-91.45" font-family="Times New Roman,serif" font-size="14.00">34</text>
<polyline fill="none" stroke="black" points="177,-85 177,-132.5"/>
<text text-anchor="middle" x="191.75" y="-115.2" font-family="Times New Roman,serif" font-size="14.00">&#39;8&#39;</text>
<polyline fill="none" stroke="black" points="177,-108.75 206.5,-108.75"/>
<text text-anchor="middle" x="191.75" y="-91.45" font-family="Times New Roman,serif" font-size="14.00">35</text>
<polyline fill="none" stroke="black" points="206.5,-85 206.5,-132.5"/>
<text text-anchor="middle" x="221.25" y="-115.2" font-family="Times New Roman,serif" font-size="14.00">&#39;9&#39;</text>
<polyline fill="none" stroke="black" points="206.5,-108.75 236,-108.75"/>
<text text-anchor="middle" x="221.25" y="-91.45" font-family="Times New Roman,serif" font-size="14.00">36</text>
<polyline fill="none" stroke="black" points="236,-85 236,-132.5"/>
<text text-anchor="middle" x="250.75" y="-115.2" font-family="Times New Roman,serif" font-size="14.00">&#39;0&#39;</text>
<polyline fill="none" stroke="black" points="236,-108.75 265.5,-108.75"/>
<text text-anchor="middle" x="250.75" y="-91.45" font-family="Times New Roman,serif" font-size="14.00">37</text>
<polyline fill="none" stroke="black" points="265.5,-85 265.5,-132.5"/>
<text text-anchor="middle" x="280.25" y="-115.2" font-family="Times New Roman,serif" font-size="14.00">&#39;1&#39;</text>
<polyline fill="none" stroke="black" points="265.5,-108.75 295,-108.75"/>
<text text-anchor="middle" x="280.25" y="-91.45" font-family="Times New Roman,serif" font-size="14.00">38</text>
<polyline fill="none" stroke="black" points="295,-85 295,-132.5"/>
<text text-anchor="middle" x="309.75" y="-115.2" font-family="Times New Roman,serif" font-size="14.00">&#39;3&#39;</text>
<polyline fill="none" stroke="black" points="295,-108.75 324.5,-108.75"/>
<text text-anchor="middle" x="309.75" y="-91.45" font-family="Times New Roman,serif" font-size="14.00">39</text>
<polyline fill="none" stroke="black" points="324.5,-85 324.5,-132.5"/>
<text text-anchor="middle" x="339.25" y="-115.2" font-family="Times New Roman,serif" font-size="14.00">&#39;4&#39;</text>
<polyline fill="none" stroke="black" points="324.5,-108.75 354,-108.75"/>
<text text-anchor="middle" x="339.25" y="-91.45" font-family="Times New Roman,serif" font-size="14.00">40</text>
<polyline fill="none" stroke="black" points="354,-85 354,-132.5"/>
<text text-anchor="middle" x="368.75" y="-115.2" font-family="Times New Roman,serif" font-size="14.00">&#39;~&#39;</text>
<polyline fill="none" stroke="black" points="354,-108.75 383.5,-108.75"/>
<text text-anchor="middle" x="368.75" y="-91.45" font-family="Times New Roman,serif" font-size="14.00">41</text>
<polyline fill="none" stroke="black" points="383.5,-85 383.5,-132.5"/>
<text text-anchor="middle" x="398.25" y="-115.2" font-family="Times New Roman,serif" font-size="14.00">&#39;~&#39;</text>
<polyline fill="none" stroke="black" points="383.5,-108.75 413,-108.75"/>
<text text-anchor="middle" x="398.25" y="-91.45" font-family="Times New Roman,serif" font-size="14.00">42</text>
<polyline fill="none" stroke="black" points="413,-85 413,-132.5"/>
<text text-anchor="middle" x="427.75" y="-115.2" font-family="Times New Roman,serif" font-size="14.00">&#39;~&#39;</text>
<polyline fill="none" stroke="black" points="413,-108.75 442.5,-108.75"/>
<text text-anchor="middle" x="427.75" y="-91.45" font-family="Times New Roman,serif" font-size="14.00">43</text>
<polyline fill="none" stroke="black" points="442.5,-85 442.5,-132.5"/>
<text text-anchor="middle" x="457.25" y="-115.2" font-family="Times New Roman,serif" font-size="14.00">&#39;~&#39;</text>
<polyline fill="none" stroke="black" points="442.5,-108.75 472,-108.75"/>
<text text-anchor="middle" x="457.25" y="-91.45" font-family="Times New Roman,serif" font-size="14.00">44</text>
<polyline fill="none" stroke="black" points="472,-85 472,-132.5"/>
<text text-anchor="middle" x="486.75" y="-115.2" font-family="Times New Roman,serif" font-size="14.00">&#39;~&#39;</text>
<polyline fill="none" stroke="black" points="472,-108.75 501.5,-108.75"/>
<text text-anchor="middle" x="486.75" y="-91.45" font-family="Times New Roman,serif" font-size="14.00">45</text>
<polyline fill="none" stroke="black" points="501.5,-85 501.5,-132.5"/>
<text text-anchor="middle" x="516.25" y="-115.2" font-family="Times New Roman,serif" font-size="14.00">&#39;~&#39;</text>
<polyline fill="none" stroke="black" points="501.5,-108.75 531,-108.75"/>
<text text-anchor="middle" x="516.25" y="-91.45" font-family="Times New Roman,serif" font-size="14.00">46</text>
<polyline fill="none" stroke="black" points="531,-85 531,-132.5"/>
<text text-anchor="middle" x="545.75" y="-115.2" font-family="Times New Roman,serif" font-size="14.00">&#39;~&#39;</text>
<polyline fill="none" stroke="black" points="531,-108.75 560.5,-108.75"/>
<text text-anchor="middle" x="545.75" y="-91.45" font-family="Times New Roman,serif" font-size="14.00">47</text>
<polyline fill="none" stroke="black" points="560.5,-85 560.5,-132.5"/>
<text text-anchor="middle" x="575.25" y="-115.2" font-family="Times New Roman,serif" font-size="14.00">&#39;~&#39;</text>
<polyline fill="none" stroke="black" points="560.5,-108.75 590,-108.75"/>
<text text-anchor="middle" x="575.25" y="-91.45" font-family="Times New Roman,serif" font-size="14.00">48</text>
<polyline fill="none" stroke="black" points="590,-85 590,-132.5"/>
<text text-anchor="middle" x="604.75" y="-115.2" font-family="Times New Roman,serif" font-size="14.00">&#39;~&#39;</text>
<polyline fill="none" stroke="black" points="590,-108.75 619.5,-108.75"/>
<text text-anchor="middle" x="604.75" y="-91.45" font-family="Times New Roman,serif" font-size="14.00">49</text>
<polyline fill="none" stroke="black" points="619.5,-85 619.5,-132.5"/>
<text text-anchor="middle" x="634.25" y="-115.2" font-family="Times New Roman,serif" font-size="14.00">&#39;~&#39;</text>
<polyline fill="none" stroke="black" points="619.5,-108.75 649,-108.75"/>
<text text-anchor="middle" x="634.25" y="-91.45" font-family="Times New Roman,serif" font-size="14.00">50</text>
<polyline fill="none" stroke="black" points="649,-85 649,-132.5"/>
<text text-anchor="middle" x="663.75" y="-115.2" font-family="Times New Roman,serif" font-size="14.00">&#39;~&#39;</text>
<polyline fill="none" stroke="black" points="649,-108.75 678.5,-108.75"/>
<text text-anchor="middle" x="663.75" y="-91.45" font-family="Times New Roman,serif" font-size="14.00">51</text>
<polyline fill="none" stroke="black" points="678.5,-85 678.5,-132.5"/>
<text text-anchor="middle" x="693.25" y="-115.2" font-family="Times New Roman,serif" font-size="14.00">&#39;~&#39;</text>
<polyline fill="none" stroke="black" points="678.5,-108.75 708,-108.75"/>
<text text-anchor="middle" x="693.25" y="-91.45" font-family="Times New Roman,serif" font-size="14.00">52</text>
<polyline fill="none" stroke="black" points="708,-85 708,-132.5"/>
<text text-anchor="middle" x="722.75" y="-115.2" font-family="Times New Roman,serif" font-size="14.00">&#39;~&#39;</text>
<polyline fill="none" stroke="black" points="708,-108.75 737.5,-108.75"/>
<text text-anchor="middle" x="722.75" y="-91.45" font-family="Times New Roman,serif" font-size="14.00">53</text>
<polyline fill="none" stroke="black" points="737.5,-85 737.5,-132.5"/>
<text text-anchor="middle" x="752.25" y="-115.2" font-family="Times New Roman,serif" font-size="14.00">&#39;~&#39;</text>
<polyline fill="none" stroke="black" points="737.5,-108.75 767,-108.75"/>
<text text-anchor="middle" x="752.25" y="-91.45" font-family="Times New Roman,serif" font-size="14.00">54</text>
<polyline fill="none" stroke="black" points="767,-85 767,-132.5"/>
<text text-anchor="middle" x="781.75" y="-115.2" font-family="Times New Roman,serif" font-size="14.00">&#39;~&#39;</text>
<polyline fill="none" stroke="black" points="767,-108.75 796.5,-108.75"/>
<text text-anchor="middle" x="781.75" y="-91.45" font-family="Times New Roman,serif" font-size="14.00">55</text>
<polyline fill="none" stroke="black" points="796.5,-85 796.5,-132.5"/>
<text text-anchor="middle" x="811.25" y="-115.2" font-family="Times New Roman,serif" font-size="14.00">&#39;~&#39;</text>
<polyline fill="none" stroke="black" points="796.5,-108.75 826,-108.75"/>
<text text-anchor="middle" x="811.25" y="-91.45" font-family="Times New Roman,serif" font-size="14.00">56</text>
<polyline fill="none" stroke="black" points="826,-85 826,-132.5"/>
<text text-anchor="middle" x="840.75" y="-115.2" font-family="Times New Roman,serif" font-size="14.00">&#39;~&#39;</text>
<polyline fill="none" stroke="black" points="826,-108.75 855.5,-108.75"/>
<text text-anchor="middle" x="840.75" y="-91.45" font-family="Times New Roman,serif" font-size="14.00">57</text>
<polyline fill="none" stroke="black" points="855.5,-85 855.5,-132.5"/>
<text text-anchor="middle" x="870.25" y="-115.2" font-family="Times New Roman,serif" font-size="14.00">&#39;~&#39;</text>
<polyline fill="none" stroke="black" points="855.5,-108.75 885,-108.75"/>
<text text-anchor="middle" x="870.25" y="-91.45" font-family="Times New Roman,serif" font-size="14.00">58</text>
<polyline fill="none" stroke="black" points="885,-85 885,-132.5"/>
<text text-anchor="middle" x="899.75" y="-115.2" font-family="Times New Roman,serif" font-size="14.00">&#39;~&#39;</text>
<polyline fill="none" stroke="black" points="885,-108.75 914.5,-108.75"/>
<text text-anchor="middle" x="899.75" y="-91.45" font-family="Times New Roman,serif" font-size="14.00">59</text>
<polyline fill="none" stroke="black" points="914.5,-85 914.5,-132.5"/>
<text text-anchor="middle" x="929.25" y="-115.2" font-family="Times New Roman,serif" font-size="14.00">&#39;~&#39;</text>
<polyline fill="none" stroke="black" points="914.5,-108.75 944,-108.75"/>
<text text-anchor="middle" x="929.25" y="-91.45" font-family="Times New Roman,serif" font-size="14.00">60</text>
</g>
<!-- L3&#45;&gt;L4 -->
<g id="edge8" class="edge">
<title>L3:O7&#45;&gt;L4:I29</title>
<path fill="none" stroke="black" d="M311,-169C311,-40.62 33.21,-251.56 15.85,-144.39"/>
<polygon fill="black" stroke="black" points="19.35,-144.22 15.11,-134.51 12.37,-144.74 19.35,-144.22"/>
</g>
<!-- L3&#45;&gt;L4 -->
<g id="edge9" class="edge">
<title>L3:O8&#45;&gt;L4:I37</title>
<path fill="none" stroke="black" d="M340,-169C340,-131 269.4,-165.98 253.96,-143.94"/>
<polygon fill="black" stroke="black" points="257.39,-143.2 251.4,-134.46 250.63,-145.03 257.39,-143.2"/>
</g>
<!-- L3&#45;&gt;L4 -->
<g id="edge10" class="edge">
<title>L3:O9&#45;&gt;L4:I41</title>
<path fill="none" stroke="black" d="M368,-169C368,-157.62 368.51,-152.32 368.8,-144.45"/>
<polygon fill="black" stroke="black" points="372.3,-144.57 368.97,-134.51 365.3,-144.45 372.3,-144.57"/>
</g>
<!-- L3&#45;&gt;L4 -->
<g id="edge11" class="edge">
<title>L3:O10&#45;&gt;L4:I42</title>
<path fill="none" stroke="black" d="M398,-169C398,-157.62 398,-152.32 398,-144.45"/>
<polygon fill="black" stroke="black" points="401.5,-144.51 398,-134.51 394.5,-144.51 401.5,-144.51"/>
</g>
<!-- L3&#45;&gt;L4 -->
<g id="edge12" class="edge">
<title>L3:O11&#45;&gt;L4:I43</title>
<path fill="none" stroke="black" d="M427,-169C427,-157.62 427.51,-152.32 427.8,-144.45"/>
<polygon fill="black" stroke="black" points="431.3,-144.57 427.97,-134.51 424.3,-144.45 431.3,-144.57"/>
</g>
<!-- L3&#45;&gt;L4 -->
<g id="edge13" class="edge">
<title>L3:O12&#45;&gt;L4:I44</title>
<path fill="none" stroke="black" d="M457,-169C457,-157.62 457,-152.32 457,-144.45"/>
<polygon fill="black" stroke="black" points="460.5,-144.51 457,-134.51 453.5,-144.51 460.5,-144.51"/>
</g>
<!-- L3&#45;&gt;L4 -->
<g id="edge14" class="edge">
<title>L3:O13&#45;&gt;L4:I45</title>
<path fill="none" stroke="black" d="M486,-169C486,-157.62 486.51,-152.32 486.8,-144.45"/>
<polygon fill="black" stroke="black" points="490.3,-144.57 486.97,-134.51 483.3,-144.45 490.3,-144.57"/>
</g>
<!-- L3&#45;&gt;L4 -->
<g id="edge15" class="edge">
<title>L3:O14&#45;&gt;L4:I46</title>
<path fill="none" stroke="black" d="M516,-169C516,-157.62 516,-152.32 516,-144.45"/>
<polygon fill="black" stroke="black" points="519.5,-144.51 516,-134.51 512.5,-144.51 519.5,-144.51"/>
</g>
<!-- L3&#45;&gt;L4 -->
<g id="edge16" class="edge">
<title>L3:O15&#45;&gt;L4:I47</title>
<path fill="none" stroke="black" d="M545,-169C545,-157.62 545.51,-152.32 545.8,-144.45"/>
<polygon fill="black" stroke="black" points="549.3,-144.57 545.97,-134.51 542.3,-144.45 549.3,-144.57"/>
</g>
<!-- L3&#45;&gt;L4 -->
<g id="edge17" class="edge">
<title>L3:O16&#45;&gt;L4:I48</title>
<path fill="none" stroke="black" d="M575,-169C575,-157.62 575,-152.32 575,-144.45"/>
<polygon fill="black" stroke="black" points="578.5,-144.51 575,-134.51 571.5,-144.51 578.5,-144.51"/>
</g>
<!-- L3&#45;&gt;L4 -->
<g id="edge18" class="edge">
<title>L3:O17&#45;&gt;L4:I49</title>
<path fill="none" stroke="black" d="M604,-169C604,-157.62 604.51,-152.32 604.8,-144.45"/>
<polygon fill="black" stroke="black" points="608.3,-144.57 604.97,-134.51 601.3,-144.45 608.3,-144.57"/>
</g>
<!-- L3&#45;&gt;L4 -->
<g id="edge19" class="edge">
<title>L3:O18&#45;&gt;L4:I50</title>
<path fill="none" stroke="black" d="M634,-169C634,-157.62 634,-152.32 634,-144.45"/>
<polygon fill="black" stroke="black" points="637.5,-144.51 634,-134.51 630.5,-144.51 637.5,-144.51"/>
</g>
<!-- L3&#45;&gt;L4 -->
<g id="edge20" class="edge">
<title>L3:O19&#45;&gt;L4:I51</title>
<path fill="none" stroke="black" d="M663,-169C663,-157.62 663.51,-152.32 663.8,-144.45"/>
<polygon fill="black" stroke="black" points="667.3,-144.57 663.97,-134.51 660.3,-144.45 667.3,-144.57"/>
</g>
<!-- L3&#45;&gt;L4 -->
<g id="edge21" class="edge">
<title>L3:O20&#45;&gt;L4:I52</title>
<path fill="none" stroke="black" d="M693,-169C693,-157.62 693,-152.32 693,-144.45"/>
<polygon fill="black" stroke="black" points="696.5,-144.51 693,-134.51 689.5,-144.51 696.5,-144.51"/>
</g>
<!-- L3&#45;&gt;L4 -->
<g id="edge22" class="edge">
<title>L3:O21&#45;&gt;L4:I53</title>
<path fill="none" stroke="black" d="M722,-169C722,-157.62 722.51,-152.32 722.8,-144.45"/>
<polygon fill="black" stroke="black" points="726.3,-144.57 722.97,-134.51 719.3,-144.45 726.3,-144.57"/>
</g>
<!-- L3&#45;&gt;L4 -->
<g id="edge23" class="edge">
<title>L3:O22&#45;&gt;L4:I54</title>
<path fill="none" stroke="black" d="M752,-169C752,-157.62 752,-152.32 752,-144.45"/>
<polygon fill="black" stroke="black" points="755.5,-144.51 752,-134.51 748.5,-144.51 755.5,-144.51"/>
</g>
<!-- L3&#45;&gt;L4 -->
<g id="edge24" class="edge">
<title>L3:O23&#45;&gt;L4:I55</title>
<path fill="none" stroke="black" d="M781,-169C781,-157.62 781.51,-152.32 781.8,-144.45"/>
<polygon fill="black" stroke="black" points="785.3,-144.57 781.97,-134.51 778.3,-144.45 785.3,-144.57"/>
</g>
<!-- L3&#45;&gt;L4 -->
<g id="edge25" class="edge">
<title>L3:O24&#45;&gt;L4:I56</title>
<path fill="none" stroke="black" d="M811,-169C811,-157.62 811,-152.32 811,-144.45"/>
<polygon fill="black" stroke="black" points="814.5,-144.51 811,-134.51 807.5,-144.51 814.5,-144.51"/>
</g>
<!-- L3&#45;&gt;L4 -->
<g id="edge26" class="edge">
<title>L3:O25&#45;&gt;L4:I57</title>
<path fill="none" stroke="black" d="M840,-169C840,-157.62 840.51,-152.32 840.8,-144.45"/>
<polygon fill="black" stroke="black" points="844.3,-144.57 840.97,-134.51 837.3,-144.45 844.3,-144.57"/>
</g>
<!-- L3&#45;&gt;L4 -->
<g id="edge27" class="edge">
<title>L3:O26&#45;&gt;L4:I58</title>
<path fill="none" stroke="black" d="M870,-169C870,-157.62 870,-152.32 870,-144.45"/>
<polygon fill="black" stroke="black" points="873.5,-144.51 870,-134.51 866.5,-144.51 873.5,-144.51"/>
</g>
<!-- L3&#45;&gt;L4 -->
<g id="edge28" class="edge">
<title>L3:O27&#45;&gt;L4:I59</title>
<path fill="none" stroke="black" d="M899,-169C899,-157.62 899.51,-152.32 899.8,-144.45"/>
<polygon fill="black" stroke="black" points="903.3,-144.57 899.97,-134.51 896.3,-144.45 903.3,-144.57"/>
</g>
<!-- L3&#45;&gt;L4 -->
<g id="edge29" class="edge">
<title>L3:O28&#45;&gt;L4:I60</title>
<path fill="none" stroke="black" d="M929,-169C929,-157.62 929,-152.32 929,-144.45"/>
<polygon fill="black" stroke="black" points="932.5,-144.51 929,-134.51 925.5,-144.51 932.5,-144.51"/>
</g>
<!-- L5 -->
<g id="node6" class="node">
<title>L5</title>
<polygon fill="none" stroke="black" points="0,-0.5 0,-48 354,-48 354,-0.5 0,-0.5"/>
<text text-anchor="middle" x="14.75" y="-30.7" font-family="Times New Roman,serif" font-size="14.00">&#39;~&#39;</text>
<polyline fill="none" stroke="black" points="0,-24.25 29.5,-24.25"/>
<text text-anchor="middle" x="14.75" y="-6.95" font-family="Times New Roman,serif" font-size="14.00">61</text>
<polyline fill="none" stroke="black" points="29.5,-0.5 29.5,-48"/>
<text text-anchor="middle" x="44.25" y="-30.7" font-family="Times New Roman,serif" font-size="14.00">&#39;~&#39;</text>
<polyline fill="none" stroke="black" points="29.5,-24.25 59,-24.25"/>
<text text-anchor="middle" x="44.25" y="-6.95" font-family="Times New Roman,serif" font-size="14.00">62</text>
<polyline fill="none" stroke="black" points="59,-0.5 59,-48"/>
<text text-anchor="middle" x="73.75" y="-30.7" font-family="Times New Roman,serif" font-size="14.00">&#39;~&#39;</text>
<polyline fill="none" stroke="black" points="59,-24.25 88.5,-24.25"/>
<text text-anchor="middle" x="73.75" y="-6.95" font-family="Times New Roman,serif" font-size="14.00">63</text>
<polyline fill="none" stroke="black" points="88.5,-0.5 88.5,-48"/>
<text text-anchor="middle" x="103.25" y="-30.7" font-family="Times New Roman,serif" font-size="14.00">&#39;~&#39;</text>
<polyline fill="none" stroke="black" points="88.5,-24.25 118,-24.25"/>
<text text-anchor="middle" x="103.25" y="-6.95" font-family="Times New Roman,serif" font-size="14.00">64</text>
<polyline fill="none" stroke="black" points="118,-0.5 118,-48"/>
<text text-anchor="middle" x="132.75" y="-30.7" font-family="Times New Roman,serif" font-size="14.00">&#39;~&#39;</text>
<polyline fill="none" stroke="black" points="118,-24.25 147.5,-24.25"/>
<text text-anchor="middle" x="132.75" y="-6.95" font-family="Times New Roman,serif" font-size="14.00">65</text>
<polyline fill="none" stroke="black" points="147.5,-0.5 147.5,-48"/>
<text text-anchor="middle" x="162.25" y="-30.7" font-family="Times New Roman,serif" font-size="14.00">&#39;~&#39;</text>
<polyline fill="none" stroke="black" points="147.5,-24.25 177,-24.25"/>
<text text-anchor="middle" x="162.25" y="-6.95" font-family="Times New Roman,serif" font-size="14.00">66</text>
<polyline fill="none" stroke="black" points="177,-0.5 177,-48"/>
<text text-anchor="middle" x="191.75" y="-30.7" font-family="Times New Roman,serif" font-size="14.00">&#39;~&#39;</text>
<polyline fill="none" stroke="black" points="177,-24.25 206.5,-24.25"/>
<text text-anchor="middle" x="191.75" y="-6.95" font-family="Times New Roman,serif" font-size="14.00">67</text>
<polyline fill="none" stroke="black" points="206.5,-0.5 206.5,-48"/>
<text text-anchor="middle" x="221.25" y="-30.7" font-family="Times New Roman,serif" font-size="14.00">&#39;~&#39;</text>
<polyline fill="none" stroke="black" points="206.5,-24.25 236,-24.25"/>
<text text-anchor="middle" x="221.25" y="-6.95" font-family="Times New Roman,serif" font-size="14.00">68</text>
<polyline fill="none" stroke="black" points="236,-0.5 236,-48"/>
<text text-anchor="middle" x="250.75" y="-30.7" font-family="Times New Roman,serif" font-size="14.00">&#39;~&#39;</text>
<polyline fill="none" stroke="black" points="236,-24.25 265.5,-24.25"/>
<text text-anchor="middle" x="250.75" y="-6.95" font-family="Times New Roman,serif" font-size="14.00">69</text>
<polyline fill="none" stroke="black" points="265.5,-0.5 265.5,-48"/>
<text text-anchor="middle" x="280.25" y="-30.7" font-family="Times New Roman,serif" font-size="14.00">&#39;~&#39;</text>
<polyline fill="none" stroke="black" points="265.5,-24.25 295,-24.25"/>
<text text-anchor="middle" x="280.25" y="-6.95" font-family="Times New Roman,serif" font-size="14.00">70</text>
<polyline fill="none" stroke="black" points="295,-0.5 295,-48"/>
<text text-anchor="middle" x="309.75" y="-30.7" font-family="Times New Roman,serif" font-size="14.00">&#39;~&#39;</text>
<polyline fill="none" stroke="black" points="295,-24.25 324.5,-24.25"/>
<text text-anchor="middle" x="309.75" y="-6.95" font-family="Times New Roman,serif" font-size="14.00">71</text>
<polyline fill="none" stroke="black" points="324.5,-0.5 324.5,-48"/>
<text text-anchor="middle" x="339.25" y="-30.7" font-family="Times New Roman,serif" font-size="14.00">&#39;~&#39;</text>
<polyline fill="none" stroke="black" points="324.5,-24.25 354,-24.25"/>
<text text-anchor="middle" x="339.25" y="-6.95" font-family="Times New Roman,serif" font-size="14.00">72</text>
</g>
<!-- L4&#45;&gt;L5 -->
<g id="edge30" class="edge">
<title>L4:O29&#45;&gt;L5:I61</title>
<path fill="none" stroke="black" d="M15,-84.5C15,-73.12 15,-67.82 15,-59.95"/>
<polygon fill="black" stroke="black" points="18.5,-60.01 15,-50.01 11.5,-60.01 18.5,-60.01"/>
</g>
<!-- L4&#45;&gt;L5 -->
<g id="edge31" class="edge">
<title>L4:O30&#45;&gt;L5:I62</title>
<path fill="none" stroke="black" d="M44,-84.5C44,-73.12 44,-67.82 44,-59.95"/>
<polygon fill="black" stroke="black" points="47.5,-60.01 44,-50.01 40.5,-60.01 47.5,-60.01"/>
</g>
<!-- L4&#45;&gt;L5 -->
<g id="edge32" class="edge">
<title>L4:O31&#45;&gt;L5:I63</title>
<path fill="none" stroke="black" d="M74,-84.5C74,-73.12 74,-67.82 74,-59.95"/>
<polygon fill="black" stroke="black" points="77.5,-60.01 74,-50.01 70.5,-60.01 77.5,-60.01"/>
</g>
<!-- L4&#45;&gt;L5 -->
<g id="edge33" class="edge">
<title>L4:O32&#45;&gt;L5:I64</title>
<path fill="none" stroke="black" d="M103,-84.5C103,-73.12 103,-67.82 103,-59.95"/>
<polygon fill="black" stroke="black" points="106.5,-60.01 103,-50.01 99.5,-60.01 106.5,-60.01"/>
</g>
<!-- L4&#45;&gt;L5 -->
<g id="edge34" class="edge">
<title>L4:O33&#45;&gt;L5:I65</title>
<path fill="none" stroke="black" d="M133,-84.5C133,-73.12 133,-67.82 133,-59.95"/>
<polygon fill="black" stroke="black" points="136.5,-60.01 133,-50.01 129.5,-60.01 136.5,-60.01"/>
</g>
<!-- L4&#45;&gt;L5 -->
<g id="edge35" class="edge">
<title>L4:O34&#45;&gt;L5:I66</title>
<path fill="none" stroke="black" d="M162,-84.5C162,-73.12 162,-67.82 162,-59.95"/>
<polygon fill="black" stroke="black" points="165.5,-60.01 162,-50.01 158.5,-60.01 165.5,-60.01"/>
</g>
<!-- L4&#45;&gt;L5 -->
<g id="edge36" class="edge">
<title>L4:O35&#45;&gt;L5:I67</title>
<path fill="none" stroke="black" d="M192,-84.5C192,-73.12 192,-67.82 192,-59.95"/>
<polygon fill="black" stroke="black" points="195.5,-60.01 192,-50.01 188.5,-60.01 195.5,-60.01"/>
</g>
<!-- L4&#45;&gt;L5 -->
<g id="edge37" class="edge">
<title>L4:O36&#45;&gt;L5:I68</title>
<path fill="none" stroke="black" d="M221,-84.5C221,-73.12 221,-67.82 221,-59.95"/>
<polygon fill="black" stroke="black" points="224.5,-60.01 221,-50.01 217.5,-60.01 224.5,-60.01"/>
</g>
<!-- L4&#45;&gt;L5 -->
<g id="edge38" class="edge">
<title>L4:O37&#45;&gt;L5:I69</title>
<path fill="none" stroke="black" d="M251,-84.5C251,-73.12 251,-67.82 251,-59.95"/>
<polygon fill="black" stroke="black" points="254.5,-60.01 251,-50.01 247.5,-60.01 254.5,-60.01"/>
</g>
<!-- L4&#45;&gt;L5 -->
<g id="edge39" class="edge">
<title>L4:O38&#45;&gt;L5:I70</title>
<path fill="none" stroke="black" d="M280,-84.5C280,-73.12 280,-67.82 280,-59.95"/>
<polygon fill="black" stroke="black" points="283.5,-60.01 280,-50.01 276.5,-60.01 283.5,-60.01"/>
</g>
<!-- L4&#45;&gt;L5 -->
<g id="edge40" class="edge">
<title>L4:O39&#45;&gt;L5:I71</title>
<path fill="none" stroke="black" d="M310,-84.5C310,-73.12 310,-67.82 310,-59.95"/>
<polygon fill="black" stroke="black" points="313.5,-60.01 310,-50.01 306.5,-60.01 313.5,-60.01"/>
</g>
<!-- L4&#45;&gt;L5 -->
<g id="edge41" class="edge">
<title>L4:O40&#45;&gt;L5:I72</title>
<path fill="none" stroke="black" d="M339,-84.5C339,-71.09 352.61,-56.59 358.93,-47.03"/>
<polygon fill="black" stroke="black" points="362.23,-45.87 355.52,-37.67 355.66,-48.27 362.23,-45.87"/>
</g>
</g>
</svg>
